<svg id="Capa_1" enable-background="new 0 0 497 497" height="512" viewBox="0 0 497 497" width="512" xmlns="http://www.w3.org/2000/svg"><g><path d="m28.373 187.926c-17.566 18.269-28.373 43.084-28.373 70.429 0 56.137 45.508 101.645 101.645 101.645h312.955c35.091 0 65.039-21.945 76.92-52.852-14.794 14.146-468.527-106.831-463.147-119.222z" fill="#81a9c8"/><path d="m414.6 195.2c0-49.473-40.106-89.579-89.579-89.579-3.411 0-6.775.197-10.087.569-13.066-60.696-67.033-106.19-131.634-106.19-74.371 0-134.66 60.289-134.66 134.66 0 11.885 1.546 23.407 4.437 34.384-9.188 5.007-17.509 11.398-24.704 18.881-5.38 12.392-8.373 26.06-8.373 40.43 0 56.137 45.508 101.645 101.645 101.645h312.955c22.086 0 42.125-8.706 56.92-22.852 3.527-9.175 5.479-19.131 5.479-29.548.001-45.508-36.891-82.4-82.399-82.4z" fill="#bcd1e1"/><circle cx="174.5" cy="153" fill="#81a9c8" r="60"/><circle cx="184.5" cy="133" fill="#9cd169" r="60"/><path d="m184.5 170.5c-4.143 0-7.5-3.357-7.5-7.5v-22.5h-22.5c-4.143 0-7.5-3.357-7.5-7.5s3.357-7.5 7.5-7.5h22.5v-22.5c0-4.143 3.357-7.5 7.5-7.5s7.5 3.357 7.5 7.5v22.5h22.5c4.143 0 7.5 3.357 7.5 7.5s-3.357 7.5-7.5 7.5h-22.5v22.5c0 4.143-3.357 7.5-7.5 7.5z" fill="#ebf7e0"/><path d="m302.37 240.263-26.764-26.763h23.079c4.143 0 7.5-3.357 7.5-7.5s-3.357-7.5-7.5-7.5h-41.172c-.044-.002-.089 0-.135.001h-.001c-.007 0-.013 0-.02 0-.005 0-.012.001-.021.001-.007 0-.018-.001-.019 0-.006 0-.007.008-.012.009-3.984.109-7.187 3.313-7.295 7.297-.001.006-.01.005-.01.012v.002.017.012c-.001.002-.001.006-.001.009v.02.001c-.001.045-.001.09-.001.135v41.172c0 4.143 3.357 7.5 7.5 7.5s7.5-3.357 7.5-7.5v-23.079l26.763 26.764c17.223 17.221 17.948 37.5 10.623 52.992-7.62 16.112-26.569 26.135-46.118 26.135s22.834 11 22.834 11l19.72-11c6.92-4.02 13.37-11.785 17.125-19.726 9.928-20.995 9.982-46.455-13.575-70.011z" fill="#81a9c8"/><path d="m381.15 375v-30.002c-.001-8.249-6.751-14.998-15-14.998 0 0-112.298 0-140.952 0-14.327 0-20.136-5.563-24.348-12.499-4.212-6.935-10.021-16.501-24.348-16.501-19.534 0-38.645 0-45.652 0-8.25 0-15 6.75-15 15v89z" fill="#ebb044"/><path d="m130.85 390c-8.25 0-15 6.75-15 15v77c0 8.25 6.75 15 15 15h235.3c8.25 0 15-6.75 15-15v-5z" fill="#ffd064"/><path d="m366.15 360h-140.952c-14.327 0-20.135 5.563-24.348 12.499-4.213 6.935-10.021 17.501-24.348 17.501-19.534 0-38.645 0-45.652 0v79.805c0 3.957 3.238 7.195 7.195 7.195h243.105v-102c0-8.25-6.75-15-15-15z" fill="#fff0af"/></g></svg>