<?xml version="1.0" encoding="iso-8859-1"?>
<!-- Generator: Adobe Illustrator 21.0.0, SVG Export Plug-In . SVG Version: 6.00 Build 0)  -->
<svg version="1.1" id="Capa_1" xmlns="http://www.w3.org/2000/svg" xmlns:xlink="http://www.w3.org/1999/xlink" x="0px" y="0px"
	 viewBox="0 0 591.146 591.146" style="enable-background:new 0 0 591.146 591.146;" xml:space="preserve">
<g>
	<g>
		<g id="filled_outline_22_">
			<rect x="256.163" y="453.212" style="fill:#87CED9;" width="78.819" height="19.705"/>
			<path style="fill:#87CED9;" d="M472.917,285.72H305.425v-39.41H285.72v39.41H108.377c-5.439,0-9.852,4.414-9.852,9.852v49.262
				h19.705v-39.41h344.835v39.41h19.705v-49.262C482.769,290.134,478.355,285.72,472.917,285.72z"/>
			<polygon style="fill:#DADDDF;" points="323.16,206.901 315.278,167.491 275.868,167.491 267.986,206.901 246.311,206.901 
				246.311,226.606 344.835,226.606 344.835,206.901 			"/>
			<path style="fill:#DADDDF;" d="M187.196,147.786c0,10.887,8.818,19.705,19.705,19.705h177.344
				c10.887,0,19.705-8.818,19.705-19.705v-19.705H187.196V147.786z"/>
			<path style="fill:#4398D1;" d="M384.245,9.852H206.901c-10.887,0-19.705,8.818-19.705,19.705v98.524H403.95V29.557
				C403.95,18.67,395.132,9.852,384.245,9.852z"/>
			<path style="fill:#3E8CC7;" d="M384.245,9.852h-29.557L236.458,128.082H403.95V29.557C403.95,18.67,395.132,9.852,384.245,9.852z
				"/>
			<polygon style="fill:#C7CACC;" points="319.219,187.196 315.278,167.491 275.868,167.491 271.927,187.196 			"/>
			<polygon style="fill:#DADDDF;" points="500.503,571.441 492.622,532.031 453.212,532.031 445.33,571.441 423.655,571.441 
				423.655,591.146 522.179,591.146 522.179,571.441 			"/>
			<path style="fill:#DADDDF;" d="M364.54,512.326c0,10.887,8.818,19.705,19.705,19.705h177.344
				c10.887,0,19.705-8.818,19.705-19.705v-19.705H364.54V512.326z"/>
			<path style="fill:#4398D1;" d="M561.589,374.392H384.245c-10.887,0-19.705,8.818-19.705,19.705v98.524h216.754v-98.524
				C581.293,383.21,572.476,374.392,561.589,374.392z"/>
			<path style="fill:#3E8CC7;" d="M561.589,374.392h-29.557L413.802,492.622h167.491v-98.524
				C581.293,383.21,572.476,374.392,561.589,374.392z"/>
			<polygon style="fill:#C7CACC;" points="496.563,551.736 492.622,532.031 453.212,532.031 449.271,551.736 			"/>
			<polygon style="fill:#DADDDF;" points="145.816,571.441 137.934,532.031 98.524,532.031 90.642,571.441 68.967,571.441 
				68.967,591.146 167.491,591.146 167.491,571.441 			"/>
			<path style="fill:#DADDDF;" d="M9.852,512.326c0,10.887,8.818,19.705,19.705,19.705h177.344c10.887,0,19.705-8.818,19.705-19.705
				v-19.705H9.852V512.326z"/>
			<path style="fill:#4398D1;" d="M206.901,374.392H29.557c-10.887,0-19.705,8.818-19.705,19.705v98.524h216.753v-98.524
				C226.606,383.21,217.788,374.392,206.901,374.392z"/>
			<path style="fill:#3E8CC7;" d="M206.901,374.392h-29.557L59.115,492.622h167.491v-98.524
				C226.606,383.21,217.788,374.392,206.901,374.392z"/>
			<polygon style="fill:#C7CACC;" points="141.875,551.736 137.934,532.031 98.524,532.031 94.583,551.736 			"/>
			<path d="M177.344,29.557v118.229c0,16.325,13.232,29.557,29.557,29.557h56.947l-5.911,29.557h-11.626v19.705h98.524v-19.705
				h-11.626l-5.911-29.557h56.947c16.326,0,29.557-13.232,29.557-29.557V29.557C413.802,13.232,400.57,0,384.245,0H206.901
				C190.576,0,177.344,13.232,177.344,29.557z M313.11,206.901h-35.075l5.911-29.557h23.271L313.11,206.901z M384.245,157.639
				H206.901c-5.439,0-9.852-4.414-9.852-9.852v-9.852h197.049v9.852C394.097,153.225,389.683,157.639,384.245,157.639z
				 M394.097,29.557v88.672H197.049V29.557c0-5.439,4.414-9.852,9.852-9.852h177.344C389.683,19.705,394.097,24.119,394.097,29.557z
				"/>
			<path d="M167.491,591.146v-19.705h-11.626l-5.911-29.557h56.947c16.325,0,29.557-13.232,29.557-29.557V394.097
				c0-16.325-13.232-29.557-29.557-29.557H29.557C13.232,364.54,0,377.772,0,394.097v118.229c0,16.326,13.232,29.557,29.557,29.557
				h56.947l-5.911,29.557H68.967v19.705H167.491z M29.557,384.245h177.344c5.439,0,9.852,4.414,9.852,9.852v88.672H19.705v-88.672
				C19.705,388.659,24.119,384.245,29.557,384.245z M19.705,512.326v-9.852h197.049v9.852c0,5.439-4.414,9.852-9.852,9.852H29.557
				C24.119,522.179,19.705,517.765,19.705,512.326z M100.692,571.441l5.911-29.557h23.271l5.911,29.557H100.692z"/>
			<path d="M561.589,364.54H384.245c-16.326,0-29.557,13.232-29.557,29.557v118.229c0,16.326,13.232,29.557,29.557,29.557h56.947
				l-5.911,29.557h-11.626v19.705h98.524v-19.705h-11.626l-5.911-29.557h56.947c16.326,0,29.557-13.232,29.557-29.557V394.097
				C591.146,377.772,577.914,364.54,561.589,364.54z M384.245,384.245h177.344c5.439,0,9.852,4.414,9.852,9.852v88.672H374.392
				v-88.672C374.392,388.659,378.806,384.245,384.245,384.245z M490.454,571.441h-35.075l5.911-29.557h23.271L490.454,571.441z
				 M561.589,522.179H384.245c-5.439,0-9.852-4.414-9.852-9.852v-9.852h197.049v9.852
				C571.441,517.765,567.027,522.179,561.589,522.179z"/>
			<rect x="256.163" y="453.212" width="78.819" height="19.705"/>
			<path d="M305.425,246.311H285.72v39.41H108.377c-5.439,0-9.852,4.414-9.852,9.852v49.262h19.705v-39.41h344.835v39.41h19.705
				v-49.262c0-5.439-4.414-9.852-9.852-9.852H305.425V246.311z"/>
		</g>
	</g>
</g>
<g>
</g>
<g>
</g>
<g>
</g>
<g>
</g>
<g>
</g>
<g>
</g>
<g>
</g>
<g>
</g>
<g>
</g>
<g>
</g>
<g>
</g>
<g>
</g>
<g>
</g>
<g>
</g>
<g>
</g>
</svg>
